<svg width="21px" height="23px" viewBox="0 0 21 23" xmlns="http://www.w3.org/2000/svg"><g id="Page-1" stroke="none" stroke-width="1" fill="none" fill-rule="evenodd"><g id="aircraft-alert-none" transform="translate(1.000000, 1.000000)"><path d="M0.80431,13.193578 L7.975,11.957278 L7.975,16.794978 C7.975,16.955978 8.00194,17.142178 8.02776,17.286578 L5.06305,18.721178 C4.82575,18.835978 4.675,19.076378 4.675,19.339978 L4.675,19.450978 C4.675,19.873178 5.05209,20.195678 5.46923,20.130178 L8.65508,19.629478 C8.68762,19.713778 8.72744,19.807278 8.7748,19.902078 C8.8533,20.058978 8.9626,20.240078 9.1099,20.387378 C9.258,20.535478 9.477,20.680078 9.7625,20.680078 C10.048,20.680078 10.267,20.535478 10.4151,20.387378 C10.5624,20.240078 10.6717,20.058978 10.7502,19.902078 C10.7976,19.807278 10.8374,19.713778 10.8699,19.629478 L14.0558,20.130178 C14.4729,20.195678 14.85,19.873178 14.85,19.450978 L14.85,19.339978 C14.85,19.076378 14.6993,18.835978 14.4619,18.721178 L11.4972,17.286578 C11.5231,17.142178 11.55,16.955978 11.55,16.794978 L11.55,11.957278 L18.7207,13.193578 C19.1409,13.266078 19.525,12.942478 19.525,12.516078 L19.525,11.896778 C19.525,11.657278 19.4003,11.434978 19.1959,11.310078 L11.55,6.640018 L11.55,3.767498 C11.55,2.573418 11.258,1.665528 10.9138,1.045478 C10.7425,0.736948 10.5559,0.495458 10.3817,0.325144 C10.2951,0.240489 10.2055,0.167401 10.1161,0.11263 C10.0404,0.066217 9.9129,0 9.7625,0 C9.6121,0 9.4846,0.066217 9.4089,0.11263 C9.3195,0.167401 9.2299,0.240489 9.1433,0.325144 C8.9691,0.495458 8.7825,0.736948 8.61122,1.045478 C8.26701,1.665528 7.975,2.573418 7.975,3.767498 L7.975,6.640018 L0.32914,11.310078 C0.1247,11.434978 0,11.657278 0,11.896778 L0,12.516078 C0,12.942478 0.38412,13.266078 0.80431,13.193578 Z" id="Path" stroke="#090B0C" stroke-width="0.825"/><path d="M9.7625,0.412498 C9.4875,0.412498 8.3875,1.515988 8.3875,3.767498 L8.3875,6.871428 L0.4125,11.742578 L0.4125,12.842578 L8.3875,11.467578 L8.3875,16.794978 C8.3875,17.074778 8.4975,17.517578 8.4975,17.517578 L5.0875,19.167578 L5.0875,19.772578 L8.9375,19.167578 C8.9375,19.167578 9.2125,20.267578 9.7625,20.267578 C10.3125,20.267578 10.5875,19.167578 10.5875,19.167578 L14.4375,19.772578 L14.4375,19.167578 L11.0275,17.517578 C11.0275,17.517578 11.1375,17.074778 11.1375,16.794978 L11.1375,11.467578 L19.1125,12.842578 L19.1125,11.742578 L11.1375,6.871428 L11.1375,3.767498 C11.1375,1.515988 10.0375,0.412498 9.7625,0.412498 Z" id="Path" fill="#F6F7F8"/><polygon id="Path" fill="#C6CCD2" fill-rule="nonzero" points="11.1376 6.871358 11.1376 11.467478 11.5501 11.538578 11.5501 7.123318"/><polygon id="Path" fill="#C6CCD2" fill-rule="nonzero" points="8.3876 6.871358 8.3876 11.467478 7.9751 11.538578 7.9751 7.123318"/><path d="M8.6625,4.248978 C8.6625,4.248978 8.66239,3.217678 9.7624,3.217678 C10.8624,3.217678 10.8625,4.248978 10.8625,4.248978 L10.8625,4.867678 C10.8625,4.867678 10.8625,4.042678 9.7625,4.042678 C8.6625,4.042678 8.6625,4.867678 8.6625,4.867678 L8.6625,4.248978 Z" id="Path" fill="#8D99A5" fill-rule="nonzero"/><rect id="Rectangle" fill="#FFF" fill-rule="nonzero" x="8.9376" y="4.867578" width="1.65" height="9.9" rx="0.825"/><rect id="Rectangle" fill="#C6CCD2" fill-rule="nonzero" x="9.4877" y="15.867578" width="1" height="3.3" rx="0.275"/></g></g></svg>